<?xml version="1.0" encoding="UTF-8" standalone="no"?>
<svg
   xmlns:dc="http://purl.org/dc/elements/1.1/"
   xmlns:cc="http://creativecommons.org/ns#"
   xmlns:rdf="http://www.w3.org/1999/02/22-rdf-syntax-ns#"
   xmlns:svg="http://www.w3.org/2000/svg"
   xmlns="http://www.w3.org/2000/svg"
   viewBox="0 0 417.33334 116"
   height="116"
   width="417.33334"
   xml:space="preserve"
   id="svg2"
   version="1.1"><metadata
     id="metadata8"><rdf:RDF><cc:Work
         rdf:about=""><dc:format>image/svg+xml</dc:format><dc:type
           rdf:resource="http://purl.org/dc/dcmitype/StillImage" /></cc:Work></rdf:RDF></metadata><defs
     id="defs6" /><g
     transform="matrix(1.3333333,0,0,-1.3333333,0,116)"
     id="g10"><g
       transform="scale(0.1)"
       id="g12"><path
         id="path14"
         style="fill:#e17845;fill-opacity:1;fill-rule:evenodd;stroke:none"
         d="M 509.84,99.6484 C 281.641,149.141 154.84,214.141 129.57,294.531 103.949,374.57 180.66,454.648 359.73,534.73 119.922,450.469 3.01172,363.16 8.98047,272.93 15.2695,183.012 143.629,110.512 393.98,55.4297 565,21.3281 757.969,3.23828 972.891,1.12891 1188.12,-0.980469 1402.34,11.6797 1615.51,39.0586 c 213.08,27.7422 402.58,68.6714 568.32,122.7424 44.61,14.758 84.96,30.039 121.13,45.82 -1.76,-0.711 -3.51,-1.211 -5.27,-1.601 C 2133.95,151.641 1944.49,110.699 1731.37,83.3203 1517.85,55.8984 1303.67,43.1211 1088.75,44.8789 873.828,46.9883 680.859,65.2305 509.84,99.6484" /><path
         id="path16"
         style="fill:#334c9c;fill-opacity:1;fill-rule:evenodd;stroke:none"
         d="m 2597.85,795.469 c -234.26,46.722 -498.83,71.441 -793.79,74.222 -294.61,2.848 -588.01,-14.57 -880.189,-52.113 C 631.371,780 371.719,724.141 144.84,650.078 92.1914,632.191 43.9102,614.059 0,595.82 c 9.44922,3.52 19.1406,6.84 28.9805,10.039 226.8395,74.063 486.5315,130.082 779.0315,168.012 292.148,37.578 585.738,54.918 880.698,52.149 294.57,-2.821 559.02,-27.579 793.24,-74.301 316.37,-68.789 490.2,-159.258 521.49,-271.25 31.6,-112.028 -80.63,-223.321 -336.64,-333.949 317.11,114.808 469.49,233.171 457.22,355 -12.3,121.839 -187.69,219.851 -526.17,293.949" /><path
         id="path18"
         style="fill:#334f9d;fill-opacity:1;fill-rule:nonzero;stroke:none"
         d="m 389.961,401.328 73.59,4.692 c 1.57,-12 4.769,-21.098 9.687,-27.348 8.012,-10.121 19.422,-15.152 34.223,-15.152 11.019,0 19.527,2.531 25.469,7.652 6.019,5.199 9.058,11.25 9.058,18.129 0,6.437 -2.886,12.219 -8.59,17.34 -5.628,5.199 -18.828,10.039 -39.527,14.531 -33.992,7.699 -58.211,17.848 -72.66,30.469 -14.609,12.578 -21.871,28.75 -21.871,48.437 0,12.813 3.672,24.922 11.09,36.402 7.5,11.45 18.75,20.469 33.75,27.04 15,6.558 35.511,9.839 61.558,9.839 32.071,0 56.492,-6.019 73.282,-17.968 16.761,-11.871 26.761,-30.782 30,-56.719 l -72.969,-4.371 c -1.992,11.32 -6.09,19.57 -12.34,24.679 -6.172,5.079 -14.691,7.661 -25.621,7.661 -8.988,0 -15.75,-1.95 -20.32,-5.782 -4.61,-3.75 -6.872,-8.398 -6.872,-13.91 0,-3.98 1.872,-7.5 5.622,-10.621 3.64,-3.359 12.269,-6.488 25.941,-9.379 33.828,-7.301 58.051,-14.679 72.66,-22.179 14.68,-7.43 25.348,-16.649 32.027,-27.661 6.641,-11.058 10,-23.398 10,-37.031 0,-16.058 -4.449,-30.898 -13.277,-44.527 C 595,341.988 582.539,331.719 566.52,324.77 c -15.93,-6.961 -36.008,-10.469 -60.149,-10.469 -42.742,0 -72.312,8.16 -88.75,24.527 -16.371,16.442 -25.59,37.262 -27.66,62.5 z m 253.238,7.5 c 0,27.582 9.301,50.352 27.973,68.281 18.75,18.012 43.988,27.032 75.777,27.032 36.332,0 63.789,-10.59 82.352,-31.719 14.879,-16.871 22.34,-37.774 22.34,-62.652 0,-27.93 -9.301,-50.79 -27.813,-68.598 -18.437,-17.813 -44.027,-26.723 -76.719,-26.723 -29.179,0 -52.769,7.391 -70.781,22.192 -22.109,18.32 -33.129,42.379 -33.129,72.187 z m 69.692,0.152 c 0,-16.25 3.281,-28.242 9.839,-35.929 6.571,-7.742 14.77,-11.571 24.692,-11.571 10,0 18.199,3.79 24.687,11.411 6.442,7.578 9.692,19.839 9.692,36.718 0,15.7 -3.281,27.422 -9.852,35.161 -6.48,7.691 -14.488,11.558 -24.058,11.558 -10.121,0 -18.512,-3.906 -25.161,-11.719 -6.558,-7.808 -9.839,-19.687 -9.839,-35.629 z" /><path
         id="path20"
         style="fill:#334f9d;fill-opacity:1;fill-rule:nonzero;stroke:none"
         d="m 885.59,500.078 h 64.68 v -29.687 c 9.691,12.07 19.46,20.699 29.378,25.937 9.883,5.192 21.952,7.813 36.252,7.813 19.26,0 34.3,-5.743 45.15,-17.192 10.94,-11.48 16.41,-29.179 16.41,-53.121 V 318.52 h -70 v 99.839 c 0,11.332 -2.11,19.371 -6.25,24.063 -4.179,4.769 -10.12,7.187 -17.812,7.187 -8.437,0 -15.277,-3.238 -20.468,-9.687 -5.231,-6.371 -7.809,-17.774 -7.809,-34.223 V 318.52 H 885.59 Z" /><path
         id="path22"
         style="fill:#334f9d;fill-opacity:1;fill-rule:nonzero;stroke:none"
         d="m 1121.88,568.98 h 69.5313 V 521.6402 H 1121.88 Z m 0,-68.902 h 69.5313 V 318.519 H 1121.88 Z" /><path
         id="path24"
         style="fill:#e17a46;fill-opacity:1;fill-rule:nonzero;stroke:none"
         d="m 1304.3,567.578 h 228.59 v -60.156 h -76.72 V 324.141 h -75.15 v 183.281 h -76.72 z m 244.37,-67.187 h 63.28 v -28.75 c 6.02,12.5 12.27,21.089 18.75,25.781 6.57,4.687 14.57,7.027 24.07,7.027 10,0 20.85,-3.121 32.65,-9.371 l -20.94,-48.129 c -7.93,3.321 -14.21,5 -18.9,5 -8.87,0 -15.74,-3.668 -20.63,-10.929 -6.87,-10.321 -10.31,-29.61 -10.31,-57.821 v -59.058 h -67.97 z" /><path
         id="path26"
         style="fill:#e17a46;fill-opacity:1;fill-rule:nonzero;stroke:none"
         d="m 1766.64,443.359 -64.53,6.719 c 2.38,11.332 5.86,20.231 10.47,26.723 4.57,6.437 11.17,12.07 19.84,16.871 6.25,3.437 14.77,6.098 25.63,7.969 10.82,1.879 22.54,2.808 35.15,2.808 20.2,0 36.45,-1.168 48.75,-3.429 12.27,-2.309 22.54,-7.04 30.78,-14.219 5.71,-5 10.24,-12.11 13.6,-21.25 3.32,-9.071 5,-17.781 5,-26.102 v -77.808 c 0,-8.36 0.51,-14.84 1.56,-19.532 1.02,-4.687 3.32,-10.699 6.88,-17.968 h -63.44 c -2.5,4.57 -4.18,8.007 -5,10.308 -0.74,2.391 -1.53,6.141 -2.35,11.25 -8.86,-8.551 -17.65,-14.648 -26.4,-18.277 -11.88,-4.883 -25.74,-7.344 -41.56,-7.344 -21.06,0 -37.04,4.883 -47.97,14.692 -10.86,9.761 -16.25,21.789 -16.25,36.089 0,13.321 3.9,24.301 11.72,32.969 7.81,8.633 22.26,15.043 43.43,19.223 25.39,5.07 41.88,8.629 49.38,10.621 7.5,2.066 15.47,4.769 23.9,8.129 0,8.32 -1.71,14.14 -5.15,17.5 -3.44,3.32 -9.49,5 -18.13,5 -11.05,0 -19.33,-1.801 -24.84,-5.321 -4.38,-2.808 -7.89,-8.039 -10.47,-15.621 z m 58.59,-35.468 c -9.29,-3.36 -18.98,-6.332 -29.06,-8.911 -13.75,-3.671 -22.46,-7.261 -26.09,-10.781 -3.75,-3.668 -5.63,-7.808 -5.63,-12.5 0,-5.308 1.8,-9.648 5.47,-12.969 3.75,-3.351 9.22,-5 16.41,-5 7.58,0 14.61,1.801 21.09,5.469 6.45,3.641 11.02,8.051 13.75,13.281 2.7,5.321 4.06,12.11 4.06,20.469 z" /><path
         id="path28"
         style="fill:#e17a46;fill-opacity:1;fill-rule:nonzero;stroke:none"
         d="m 1932.54,500.391 h 62.81 v -28.59 c 9.45,11.64 18.99,20 28.6,25 9.68,5.078 21.4,7.648 35.15,7.648 18.75,0 33.36,-5.578 43.91,-16.719 10.62,-11.171 15.94,-28.351 15.94,-51.558 V 324.141 h -67.97 v 97.031 c 0,11.019 -2.03,18.828 -6.1,23.437 -4.06,4.571 -9.8,6.871 -17.18,6.871 -8.25,0 -14.93,-3.121 -20,-9.371 -5.12,-6.168 -7.66,-17.269 -7.66,-33.281 v -84.687 h -67.5 z" /><path
         id="path30"
         style="fill:#e17a46;fill-opacity:1;fill-rule:nonzero;stroke:none"
         d="m 2147.62,372.891 67.03,6.41 c 2.81,-8.051 6.72,-13.75 11.72,-17.192 5,-3.437 11.6,-5.16 19.84,-5.16 9.06,0 16.09,1.961 21.09,5.942 3.83,2.808 5.79,6.41 5.79,10.781 0,4.769 -2.5,8.519 -7.5,11.25 -3.68,1.879 -13.36,4.219 -29.07,7.027 -23.55,4.071 -39.92,7.821 -49.06,11.25 -9.06,3.52 -16.72,9.422 -22.97,17.66 -6.25,8.321 -9.37,17.813 -9.37,28.442 0,11.64 3.36,21.64 10.15,30 6.76,8.429 16.02,14.719 27.82,18.898 11.87,4.141 27.73,6.25 47.65,6.25 21.02,0 36.56,-1.64 46.56,-4.84 10,-3.238 18.32,-8.238 25,-15 6.76,-6.679 12.39,-15.781 16.88,-27.339 l -64.22,-6.25 c -1.68,5.621 -4.45,9.718 -8.28,12.339 -5.31,3.52 -11.72,5.313 -19.22,5.313 -7.62,0 -13.2,-1.371 -16.72,-4.063 -3.44,-2.73 -5.15,-6.019 -5.15,-9.839 0,-4.301 2.18,-7.5 6.56,-9.692 4.45,-2.308 14.1,-4.34 28.9,-6.098 22.5,-2.5 39.22,-6.05 50.16,-10.621 10.94,-4.488 19.3,-10.937 25.16,-19.379 5.82,-8.429 8.75,-17.652 8.75,-27.652 0,-10.238 -3.09,-20.156 -9.22,-29.848 -6.17,-9.601 -15.86,-17.261 -29.06,-22.96 -13.25,-5.711 -31.25,-8.598 -54.07,-8.598 -32.18,0 -55.15,4.566 -68.9,13.75 -13.67,9.258 -22.42,22.348 -26.25,39.219 z" /><path
         id="path32"
         style="fill:#e17a46;fill-opacity:1;fill-rule:nonzero;stroke:none"
         d="m 2442.66,500.391 h 32.18 V 451.02 h -32.18 V 324.141 H 2375 V 451.02 h -25.31 v 49.371 H 2375 v 7.968 c 0,7.192 0.7,15.082 2.19,23.75 1.56,8.629 4.45,15.661 8.75,21.09 4.26,5.512 10.23,9.922 17.97,13.281 7.69,3.442 18.94,5.161 33.75,5.161 11.87,0 29.1,-1.371 51.72,-4.063 l -7.5,-40.937 c -8.13,1.328 -14.69,2.031 -19.69,2.031 -6.06,0 -10.43,-1.051 -13.13,-3.121 -2.61,-2 -4.49,-5.242 -5.62,-9.692 -0.55,-2.418 -0.78,-7.578 -0.78,-15.468 z" /><path
         id="path34"
         style="fill:#e17a46;fill-opacity:1;fill-rule:nonzero;stroke:none"
         d="m 2689.61,395.551 h -135.47 c 1.25,-10.86 4.22,-18.91 8.91,-24.223 6.44,-7.738 14.92,-11.558 25.47,-11.558 6.64,0 12.96,1.64 18.9,5 3.75,2.179 7.7,5.929 11.88,11.25 l 66.56,-6.25 c -10.24,-17.739 -22.5,-30.43 -36.88,-38.129 -14.37,-7.692 -35,-11.563 -61.87,-11.563 -23.36,0 -41.72,3.281 -55.16,9.844 -13.43,6.637 -24.53,17.109 -33.28,31.406 -8.75,14.371 -13.12,31.25 -13.12,50.621 0,27.582 8.79,49.891 26.4,66.879 17.58,17.07 41.96,25.621 73.13,25.621 25.19,0 45.08,-3.859 59.69,-11.558 14.68,-7.621 25.82,-18.672 33.43,-33.121 7.58,-14.5 11.41,-33.36 11.41,-56.571 z m -68.59,32.34 c -1.37,13.007 -4.93,22.339 -10.63,27.968 -5.74,5.7 -13.24,8.59 -22.5,8.59 -10.74,0 -19.34,-4.289 -25.78,-12.808 -4.06,-5.313 -6.68,-13.243 -7.81,-23.75 z" /><path
         id="path36"
         style="fill:#e17a46;fill-opacity:1;fill-rule:nonzero;stroke:none"
         d="m 2722.07,500.391 h 63.28 v -28.75 c 6.02,12.5 12.27,21.089 18.75,25.781 6.56,4.687 14.57,7.027 24.06,7.027 10,0 20.86,-3.121 32.66,-9.371 l -20.94,-48.129 c -7.93,3.321 -14.22,5 -18.9,5 -8.87,0 -15.75,-3.668 -20.63,-10.929 -6.87,-10.321 -10.31,-29.61 -10.31,-57.821 v -59.058 h -67.97 z" /></g></g></svg>