<?xml version="1.0" encoding="utf-8"?>
<!-- Generator: Adobe Illustrator 27.5.0, SVG Export Plug-In . SVG Version: 6.00 Build 0)  -->
<svg version="1.1"
	 id="svg2" xmlns:svg="http://www.w3.org/2000/svg" xmlns:dc="http://purl.org/dc/elements/1.1/" xmlns:rdf="http://www.w3.org/1999/02/22-rdf-syntax-ns#" xmlns:cc="http://creativecommons.org/ns#"
	 xmlns="http://www.w3.org/2000/svg" xmlns:xlink="http://www.w3.org/1999/xlink" x="0px" y="0px" viewBox="0 0 417.3 116"
	 style="enable-background:new 0 0 417.3 116;" xml:space="preserve">
<style type="text/css">
	.st0{fill-rule:evenodd;clip-rule:evenodd;fill:#FFFFFF;}
	.st1{fill:#FFFFFF;}
</style>
<g id="g10" transform="matrix(1.3333333,0,0,-1.3333333,0,116)">
	<g id="g12" transform="scale(0.1)">
		<path id="path14" class="st0" d="M509.8,99.6c-228.2,49.5-355,114.5-380.3,194.9c-25.6,80,51.1,160.1,230.2,240.2
			C119.9,450.5,3,363.2,9,272.9C15.3,183,143.6,110.5,394,55.4C565,21.3,758,3.2,972.9,1.1c215.2-2.1,429.4,10.6,642.6,37.9
			c213.1,27.7,402.6,68.7,568.3,122.7c44.6,14.8,85,30,121.1,45.8c-1.8-0.7-3.5-1.2-5.3-1.6c-165.7-54.4-355.2-95.3-568.3-122.7
			c-213.5-27.4-427.7-40.2-642.6-38.4C873.8,47,680.9,65.2,509.8,99.6"/>
		<path id="path16" class="st0" d="M2597.9,795.5c-234.3,46.7-498.8,71.4-793.8,74.2c-294.6,2.8-588-14.6-880.2-52.1
			c-292.5-37.6-552.2-93.4-779-167.5C92.2,632.2,43.9,614.1,0,595.8c9.4,3.5,19.1,6.8,29,10c226.8,74.1,486.5,130.1,779,168
			c292.1,37.6,585.7,54.9,880.7,52.1c294.6-2.8,559-27.6,793.2-74.3c316.4-68.8,490.2-159.3,521.5-271.3
			c31.6-112-80.6-223.3-336.6-333.9c317.1,114.8,469.5,233.2,457.2,355C3111.7,623.4,2936.3,721.4,2597.9,795.5"/>
		<path id="path18" class="st1" d="M390,401.3l73.6,4.7c1.6-12,4.8-21.1,9.7-27.3c8-10.1,19.4-15.2,34.2-15.2
			c11,0,19.5,2.5,25.5,7.7c6,5.2,9.1,11.2,9.1,18.1c0,6.4-2.9,12.2-8.6,17.3c-5.6,5.2-18.8,10-39.5,14.5
			c-34,7.7-58.2,17.8-72.7,30.5c-14.6,12.6-21.9,28.8-21.9,48.4c0,12.8,3.7,24.9,11.1,36.4c7.5,11.5,18.8,20.5,33.8,27
			c15,6.6,35.5,9.8,61.6,9.8c32.1,0,56.5-6,73.3-18c16.8-11.9,26.8-30.8,30-56.7l-73-4.4c-2,11.3-6.1,19.6-12.3,24.7
			c-6.2,5.1-14.7,7.7-25.6,7.7c-9,0-15.8-2-20.3-5.8c-4.6-3.8-6.9-8.4-6.9-13.9c0-4,1.9-7.5,5.6-10.6c3.6-3.4,12.3-6.5,25.9-9.4
			c33.8-7.3,58.1-14.7,72.7-22.2c14.7-7.4,25.3-16.6,32-27.7c6.6-11.1,10-23.4,10-37c0-16.1-4.4-30.9-13.3-44.5
			c-8.9-13.6-21.3-23.8-37.4-30.8c-15.9-7-36-10.5-60.1-10.5c-42.7,0-72.3,8.2-88.8,24.5C401.3,355.3,392,376.1,390,401.3z
			 M643.2,408.8c0,27.6,9.3,50.4,28,68.3c18.8,18,44,27,75.8,27c36.3,0,63.8-10.6,82.4-31.7c14.9-16.9,22.3-37.8,22.3-62.7
			c0-27.9-9.3-50.8-27.8-68.6c-18.4-17.8-44-26.7-76.7-26.7c-29.2,0-52.8,7.4-70.8,22.2C654.2,355,643.2,379,643.2,408.8z
			 M712.9,409c0-16.2,3.3-28.2,9.8-35.9c6.6-7.7,14.8-11.6,24.7-11.6c10,0,18.2,3.8,24.7,11.4c6.4,7.6,9.7,19.8,9.7,36.7
			c0,15.7-3.3,27.4-9.9,35.2c-6.5,7.7-14.5,11.6-24.1,11.6c-10.1,0-18.5-3.9-25.2-11.7C716.2,436.8,712.9,424.9,712.9,409z"/>
		<path id="path20" class="st1" d="M885.6,500.1h64.7v-29.7c9.7,12.1,19.5,20.7,29.4,25.9c9.9,5.2,22,7.8,36.3,7.8
			c19.3,0,34.3-5.7,45.2-17.2c10.9-11.5,16.4-29.2,16.4-53.1V318.5h-70v99.8c0,11.3-2.1,19.4-6.2,24.1c-4.2,4.8-10.1,7.2-17.8,7.2
			c-8.4,0-15.3-3.2-20.5-9.7c-5.2-6.4-7.8-17.8-7.8-34.2v-87.2h-69.5V500.1z"/>
		<path id="path22" class="st1" d="M1121.9,569h69.5v-47.3h-69.5V569z M1121.9,500.1h69.5V318.5h-69.5V500.1z"/>
		<path id="path24" class="st1" d="M1304.3,567.6h228.6v-60.2h-76.7V324.1H1381v183.3h-76.7V567.6z M1548.7,500.4h63.3v-28.8
			c6,12.5,12.3,21.1,18.8,25.8c6.6,4.7,14.6,7,24.1,7c10,0,20.8-3.1,32.7-9.4l-20.9-48.1c-7.9,3.3-14.2,5-18.9,5
			c-8.9,0-15.7-3.7-20.6-10.9c-6.9-10.3-10.3-29.6-10.3-57.8v-59.1h-68V500.4z"/>
		<path id="path26" class="st1" d="M1766.6,443.4l-64.5,6.7c2.4,11.3,5.9,20.2,10.5,26.7c4.6,6.4,11.2,12.1,19.8,16.9
			c6.2,3.4,14.8,6.1,25.6,8c10.8,1.9,22.5,2.8,35.2,2.8c20.2,0,36.4-1.2,48.8-3.4c12.3-2.3,22.5-7,30.8-14.2
			c5.7-5,10.2-12.1,13.6-21.2c3.3-9.1,5-17.8,5-26.1v-77.8c0-8.4,0.5-14.8,1.6-19.5c1-4.7,3.3-10.7,6.9-18h-63.4
			c-2.5,4.6-4.2,8-5,10.3c-0.7,2.4-1.5,6.1-2.3,11.2c-8.9-8.6-17.7-14.6-26.4-18.3c-11.9-4.9-25.7-7.3-41.6-7.3
			c-21.1,0-37,4.9-48,14.7c-10.9,9.8-16.2,21.8-16.2,36.1c0,13.3,3.9,24.3,11.7,33c7.8,8.6,22.3,15,43.4,19.2
			c25.4,5.1,41.9,8.6,49.4,10.6c7.5,2.1,15.5,4.8,23.9,8.1c0,8.3-1.7,14.1-5.2,17.5c-3.4,3.3-9.5,5-18.1,5
			c-11.1,0-19.3-1.8-24.8-5.3C1772.7,456.2,1769.2,450.9,1766.6,443.4L1766.6,443.4z M1825.2,407.9c-9.3-3.4-19-6.3-29.1-8.9
			c-13.8-3.7-22.5-7.3-26.1-10.8c-3.8-3.7-5.6-7.8-5.6-12.5c0-5.3,1.8-9.6,5.5-13c3.8-3.4,9.2-5,16.4-5c7.6,0,14.6,1.8,21.1,5.5
			c6.4,3.6,11,8.1,13.8,13.3c2.7,5.3,4.1,12.1,4.1,20.5V407.9z"/>
		<path id="path28" class="st1" d="M1932.5,500.4h62.8v-28.6c9.4,11.6,19,20,28.6,25c9.7,5.1,21.4,7.6,35.2,7.6
			c18.8,0,33.4-5.6,43.9-16.7c10.6-11.2,15.9-28.4,15.9-51.6v-112h-68v97c0,11-2,18.8-6.1,23.4c-4.1,4.6-9.8,6.9-17.2,6.9
			c-8.2,0-14.9-3.1-20-9.4c-5.1-6.2-7.7-17.3-7.7-33.3v-84.7h-67.5L1932.5,500.4z"/>
		<path id="path30" class="st1" d="M2147.6,372.9l67,6.4c2.8-8.1,6.7-13.8,11.7-17.2c5-3.4,11.6-5.2,19.8-5.2c9.1,0,16.1,2,21.1,5.9
			c3.8,2.8,5.8,6.4,5.8,10.8c0,4.8-2.5,8.5-7.5,11.3c-3.7,1.9-13.4,4.2-29.1,7c-23.6,4.1-39.9,7.8-49.1,11.2
			c-9.1,3.5-16.7,9.4-23,17.7c-6.2,8.3-9.4,17.8-9.4,28.4c0,11.6,3.4,21.6,10.1,30c6.8,8.4,16,14.7,27.8,18.9
			c11.9,4.1,27.7,6.2,47.6,6.2c21,0,36.6-1.6,46.6-4.8c10-3.2,18.3-8.2,25-15c6.8-6.7,12.4-15.8,16.9-27.3L2265,451
			c-1.7,5.6-4.4,9.7-8.3,12.3c-5.3,3.5-11.7,5.3-19.2,5.3c-7.6,0-13.2-1.4-16.7-4.1c-3.4-2.7-5.1-6-5.1-9.8c0-4.3,2.2-7.5,6.6-9.7
			c4.4-2.3,14.1-4.3,28.9-6.1c22.5-2.5,39.2-6,50.2-10.6c10.9-4.5,19.3-10.9,25.2-19.4c5.8-8.4,8.8-17.7,8.8-27.7
			c0-10.2-3.1-20.2-9.2-29.8c-6.2-9.6-15.9-17.3-29.1-23c-13.2-5.7-31.2-8.6-54.1-8.6c-32.2,0-55.1,4.6-68.9,13.8
			C2160.2,342.9,2151.5,356,2147.6,372.9L2147.6,372.9z"/>
		<path id="path32" class="st1" d="M2442.7,500.4h32.2V451h-32.2V324.1H2375V451h-25.3v49.4h25.3v8c0,7.2,0.7,15.1,2.2,23.8
			c1.6,8.6,4.4,15.7,8.8,21.1c4.3,5.5,10.2,9.9,18,13.3c7.7,3.4,18.9,5.2,33.8,5.2c11.9,0,29.1-1.4,51.7-4.1l-7.5-40.9
			c-8.1,1.3-14.7,2-19.7,2c-6.1,0-10.4-1.1-13.1-3.1c-2.6-2-4.5-5.2-5.6-9.7C2442.9,513.4,2442.7,508.3,2442.7,500.4L2442.7,500.4z"
			/>
		<path id="path34" class="st1" d="M2689.6,395.6h-135.5c1.2-10.9,4.2-18.9,8.9-24.2c6.4-7.7,14.9-11.6,25.5-11.6
			c6.6,0,13,1.6,18.9,5c3.8,2.2,7.7,5.9,11.9,11.2l66.6-6.2c-10.2-17.7-22.5-30.4-36.9-38.1c-14.4-7.7-35-11.6-61.9-11.6
			c-23.4,0-41.7,3.3-55.2,9.8c-13.4,6.6-24.5,17.1-33.3,31.4c-8.8,14.4-13.1,31.3-13.1,50.6c0,27.6,8.8,49.9,26.4,66.9
			c17.6,17.1,42,25.6,73.1,25.6c25.2,0,45.1-3.9,59.7-11.6c14.7-7.6,25.8-18.7,33.4-33.1c7.6-14.5,11.4-33.4,11.4-56.6L2689.6,395.6
			z M2621,427.9c-1.4,13-4.9,22.3-10.6,28c-5.7,5.7-13.2,8.6-22.5,8.6c-10.7,0-19.3-4.3-25.8-12.8c-4.1-5.3-6.7-13.2-7.8-23.8
			L2621,427.9z"/>
		<path id="path36" class="st1" d="M2722.1,500.4h63.3v-28.8c6,12.5,12.3,21.1,18.8,25.8c6.6,4.7,14.6,7,24.1,7
			c10,0,20.9-3.1,32.7-9.4l-20.9-48.1c-7.9,3.3-14.2,5-18.9,5c-8.9,0-15.8-3.7-20.6-10.9c-6.9-10.3-10.3-29.6-10.3-57.8v-59.1h-68
			L2722.1,500.4z"/>
	</g>
</g>
</svg>
